<svg xmlns="http://www.w3.org/2000/svg" version="1.1" xmlns:xlink="http://www.w3.org/1999/xlink" width="512" height="512" x="0" y="0" viewBox="0 0 32 32" style="enable-background:new 0 0 512 512" xml:space="preserve" class=""><g><path d="M27.83 22.06A4.84 4.84 0 0 0 23 17.23c-1.83 0-3.4 1.03-4.22 2.54h-5.56c-.82-1.51-2.39-2.54-4.22-2.54a4.84 4.84 0 0 0-4.83 4.83c0 2.67 2.17 4.84 4.83 4.84s4.83-2.17 4.83-4.84c0-.1-.02-.19-.03-.29h4.4c-.01.1-.03.19-.03.29 0 2.67 2.17 4.84 4.83 4.84s4.83-2.17 4.83-4.84zM30.27 14.78c-1.57-.44-3.16-.81-4.75-1.11l-1.54-7.76c-.06-.29-.24-.54-.49-.68a1.03 1.03 0 0 0-.84-.06 18.806 18.806 0 0 1-13.3 0 .967.967 0 0 0-.83.06c-.26.14-.44.39-.5.68l-1.54 7.76c-1.59.3-3.18.67-4.76 1.11-.53.16-.83.71-.68 1.24.15.53.7.83 1.23.69a49.865 49.865 0 0 1 27.46 0c.09.02.18.04.27.04.44 0 .84-.29.96-.73.15-.53-.15-1.08-.69-1.24z" fill="currentColor" opacity="1" data-original="#000000" class=""></path></g></svg>